HIERARCHY
ROOT Hips
{
    OFFSET   0.000000   0.000000   0.000000
    CHANNELS 6 Xposition Yposition Zposition Zrotation Xrotation Yrotation
    JOINT Chest
    {
        OFFSET   0.000000   8.007230   0.000000
        CHANNELS 3 Zrotation Xrotation Yrotation
        JOINT Chest2
        {
            OFFSET   0.000000  22.077100   0.000000
            CHANNELS 3 Zrotation Xrotation Yrotation
            JOINT Neck
            {
                OFFSET   0.000000  23.255100   0.000000
                CHANNELS 3 Zrotation Xrotation Yrotation
                JOINT Head
                {
                    OFFSET   0.000000  14.370100   1.956600
                    CHANNELS 3 Zrotation Xrotation Yrotation
                    End Site
                    {
                        OFFSET   0.000000  19.566000   0.000000
                    }
                }
            }
            JOINT LeftCollar
            {
                OFFSET   3.911900  19.017000  -0.467063
                CHANNELS 3 Zrotation Xrotation Yrotation
                JOINT LeftShoulder
                {
                    OFFSET  10.383700   0.000000   0.000000
                    CHANNELS 3 Zrotation Xrotation Yrotation
                    JOINT LeftElbow
                    {
                        OFFSET  26.662100   0.001193   0.000980
                        CHANNELS 3 Zrotation Xrotation Yrotation
                        JOINT LeftWrist
                        {
                            OFFSET  28.869000  -0.000059  -0.000082
                            CHANNELS 3 Zrotation Xrotation Yrotation
                            JOINT LeftFinger0
                            {
                                OFFSET   2.044650  -2.323450   3.252850
                                CHANNELS 3 Zrotation Xrotation Yrotation
                                JOINT LeftFinger01
                                {
                                    OFFSET   3.088130   0.000000   0.000000
                                    CHANNELS 3 Zrotation Xrotation Yrotation
                                    JOINT LeftFinger02
                                    {
                                        OFFSET   2.639460   0.000000   0.000000
                                        CHANNELS 3 Zrotation Xrotation Yrotation
                                        End Site
                                        {
                                            OFFSET   2.582190   0.000000   0.000000
                                        }
                                    }
                                }
                            }
                            JOINT LeftFinger1
                            {
                                OFFSET   8.364480   0.000000   3.252850
                                CHANNELS 3 Zrotation Xrotation Yrotation
                                JOINT LeftFinger11
                                {
                                    OFFSET   4.646930   0.000000   0.000000
                                    CHANNELS 3 Zrotation Xrotation Yrotation
                                    JOINT LeftFinger12
                                    {
                                        OFFSET   2.323470   0.000000   0.000000
                                        CHANNELS 3 Zrotation Xrotation Yrotation
                                        End Site
                                        {
                                            OFFSET   2.273050   0.000000   0.000000
                                        }
                                    }
                                }
                            }
                            JOINT LeftFinger2
                            {
                                OFFSET   8.364490   0.000016   1.078090
                                CHANNELS 3 Zrotation Xrotation Yrotation
                                JOINT LeftFinger21
                                {
                                    OFFSET   5.111610   0.000000   0.000000
                                    CHANNELS 3 Zrotation Xrotation Yrotation
                                    JOINT LeftFinger22
                                    {
                                        OFFSET   2.788150   0.000016   0.000000
                                        CHANNELS 3 Zrotation Xrotation Yrotation
                                        End Site
                                        {
                                            OFFSET   2.727660   0.000000   0.000000
                                        }
                                    }
                                }
                            }
                            JOINT LeftFinger3
                            {
                                OFFSET   7.899780   0.000015  -1.078090
                                CHANNELS 3 Zrotation Xrotation Yrotation
                                JOINT LeftFinger31
                                {
                                    OFFSET   4.646930   0.000000   0.000000
                                    CHANNELS 3 Zrotation Xrotation Yrotation
                                    JOINT LeftFinger32
                                    {
                                        OFFSET   2.323470   0.000000   0.000000
                                        CHANNELS 3 Zrotation Xrotation Yrotation
                                        End Site
                                        {
                                            OFFSET   2.273050   0.000000   0.000000
                                        }
                                    }
                                }
                            }
                            JOINT LeftFinger4
                            {
                                OFFSET   7.435090   0.000000  -3.252850
                                CHANNELS 3 Zrotation Xrotation Yrotation
                                JOINT LeftFinger41
                                {
                                    OFFSET   3.717550   0.000000   0.000000
                                    CHANNELS 3 Zrotation Xrotation Yrotation
                                    JOINT LeftFinger42
                                    {
                                        OFFSET   1.858770   0.000000   0.000000
                                        CHANNELS 3 Zrotation Xrotation Yrotation
                                        End Site
                                        {
                                            OFFSET   1.818440   0.000000   0.000000
                                        }
                                    }
                                }
                            }
                        }
                    }
                }
            }
            JOINT RightCollar
            {
                OFFSET  -3.911910  19.017000  -0.467062
                CHANNELS 3 Zrotation Xrotation Yrotation
                JOINT RightShoulder
                {
                    OFFSET -10.383700   0.000014   0.000000
                    CHANNELS 3 Zrotation Xrotation Yrotation
                    JOINT RightElbow
                    {
                        OFFSET -26.662100   0.001225   0.001091
                        CHANNELS 3 Zrotation Xrotation Yrotation
                        JOINT RightWrist
                        {
                            OFFSET -28.869000  -0.000020  -0.000085
                            CHANNELS 3 Zrotation Xrotation Yrotation
                            JOINT RightFinger0
                            {
                                OFFSET  -2.044650  -2.323490   3.252850
                                CHANNELS 3 Zrotation Xrotation Yrotation
                                JOINT RightFinger01
                                {
                                    OFFSET  -3.088130   0.000000   0.000000
                                    CHANNELS 3 Zrotation Xrotation Yrotation
                                    JOINT RightFinger02
                                    {
                                        OFFSET  -2.639460   0.000000   0.000000
                                        CHANNELS 3 Zrotation Xrotation Yrotation
                                        End Site
                                        {
                                            OFFSET  -2.582190   0.000000   0.000000
                                        }
                                    }
                                }
                            }
                            JOINT RightFinger1
                            {
                                OFFSET  -8.364480   0.000000   3.252850
                                CHANNELS 3 Zrotation Xrotation Yrotation
                                JOINT RightFinger11
                                {
                                    OFFSET  -4.646930   0.000000   0.000000
                                    CHANNELS 3 Zrotation Xrotation Yrotation
                                    JOINT RightFinger12
                                    {
                                        OFFSET  -2.323470   0.000000   0.000000
                                        CHANNELS 3 Zrotation Xrotation Yrotation
                                        End Site
                                        {
                                            OFFSET  -2.273050   0.000000   0.000000
                                        }
                                    }
                                }
                            }
                            JOINT RightFinger2
                            {
                                OFFSET  -8.364480   0.000000   1.078090
                                CHANNELS 3 Zrotation Xrotation Yrotation
                                JOINT RightFinger21
                                {
                                    OFFSET  -5.111620   0.000000   0.000000
                                    CHANNELS 3 Zrotation Xrotation Yrotation
                                    JOINT RightFinger22
                                    {
                                        OFFSET  -2.788160   0.000000   0.000000
                                        CHANNELS 3 Zrotation Xrotation Yrotation
                                        End Site
                                        {
                                            OFFSET  -2.727660   0.000000   0.000000
                                        }
                                    }
                                }
                            }
                            JOINT RightFinger3
                            {
                                OFFSET  -7.899780   0.000000  -1.078090
                                CHANNELS 3 Zrotation Xrotation Yrotation
                                JOINT RightFinger31
                                {
                                    OFFSET  -4.646930   0.000000   0.000000
                                    CHANNELS 3 Zrotation Xrotation Yrotation
                                    JOINT RightFinger32
                                    {
                                        OFFSET  -2.323470   0.000000   0.000000
                                        CHANNELS 3 Zrotation Xrotation Yrotation
                                        End Site
                                        {
                                            OFFSET  -2.273050   0.000000   0.000000
                                        }
                                    }
                                }
                            }
                            JOINT RightFinger4
                            {
                                OFFSET  -7.435090   0.000000  -3.252850
                                CHANNELS 3 Zrotation Xrotation Yrotation
                                JOINT RightFinger41
                                {
                                    OFFSET  -3.717550   0.000000   0.000000
                                    CHANNELS 3 Zrotation Xrotation Yrotation
                                    JOINT RightFinger42
                                    {
                                        OFFSET  -1.858760   0.000000   0.000000
                                        CHANNELS 3 Zrotation Xrotation Yrotation
                                        End Site
                                        {
                                            OFFSET  -1.818440   0.000000   0.000000
                                        }
                                    }
                                }
                            }
                        }
                    }
                }
            }
        }
    }
    JOINT LeftHip
    {
        OFFSET   9.783030   0.000000   0.000000
        CHANNELS 3 Zrotation Xrotation Yrotation
        JOINT LeftKnee
        {
            OFFSET   0.000063 -41.789100   0.000608
            CHANNELS 3 Zrotation Xrotation Yrotation
            JOINT LeftAnkle
            {
                OFFSET   0.000048 -41.133200  -0.000184
                CHANNELS 3 Zrotation Xrotation Yrotation
                JOINT LeftToe
                {
                    OFFSET   0.000000  -6.358960  14.674500
                    CHANNELS 3 Zrotation Xrotation Yrotation
                    End Site
                    {
                        OFFSET   0.000000   0.000000   3.913200
                    }
                }
            }
        }
    }
    JOINT RightHip
    {
        OFFSET  -9.783030   0.000000   0.000000
        CHANNELS 3 Zrotation Xrotation Yrotation
        JOINT RightKnee
        {
            OFFSET   0.000071 -41.789100   0.001239
            CHANNELS 3 Zrotation Xrotation Yrotation
            JOINT RightAnkle
            {
                OFFSET   0.000037 -41.133200  -0.000166
                CHANNELS 3 Zrotation Xrotation Yrotation
                JOINT RightToe
                {
                    OFFSET   0.000000  -6.358960  14.674500
                    CHANNELS 3 Zrotation Xrotation Yrotation
                    End Site
                    {
                        OFFSET   0.000000   0.000000   3.913200
                    }
                }
            }
        }
    }
}
MOTION
Frames: 4
Frame Time:   0.016667
  0.822631  89.949300  -0.986454  -1.128800 -12.681200  -0.921339  -0.005167   7.341820   1.097650  -0.155457  14.682200   2.223740  -4.095860  -0.136616  -0.008758  -6.729090  -0.272675  14.447500  -8.073080  -4.271860   0.033068 -62.254600  19.320900 -40.227800  10.466800 -13.001900 -70.889700  39.453400  -9.484510  27.254400  85.977300  48.123800 -111.414000   5.506610  -0.001507   0.000193   7.753330  -0.002529   0.007091 -51.621700   2.677110  -2.119850 -42.276100  -0.000140  -0.000586 -31.707100   0.001781  -0.000320 -56.917200  -3.024450   1.969620 -56.969300  -0.001748  -0.005342 -42.727000   0.007523  -0.002283 -44.633100  -5.837210   5.879390 -54.451100   0.000588   0.000943 -38.647100  -0.000219  -0.004698 -52.289100  -6.572720   5.052160 -78.869400  -0.001233  -0.003988 -52.527000   0.000977   0.000761   9.554120  -1.060680  12.123100  56.722300  16.426800  45.486400 -13.867300 -16.514900  65.777300 -72.285800   5.276600   7.250900 -37.688400  35.134000  78.702500  28.894400  -0.001318   0.000413   9.447220   0.000850   0.000128  46.523100  -2.689690  -2.549850  38.113300  -0.002146  -0.008985  28.023500   0.001165   0.001727  38.090300  -3.560600  -4.527190  54.218300   0.000779  -0.003387  36.722400  -0.004696   0.001994  53.732800  -6.303300  -4.606200  53.998300   0.002373  -0.000162  40.494900  -0.004920  -0.002432  65.078600  -9.085210  -4.196180  98.118100   0.000623   0.001526  65.346700  -0.002830  -0.001542  -0.679226  11.667700   1.748560   0.465804   1.446430  10.936600  -4.309630  -2.788680   5.172790  -0.000000   0.000000   0.000000   2.988810   9.136380 -10.152700  -2.123080   8.501250  -8.670480  -9.929030  -1.584060   0.452771   0.000000   0.000000  -0.000000
  0.834356  89.941000  -0.985322  -1.121650 -12.619900  -0.818535  -0.013387   7.309860   1.086000  -0.169898  14.618100   2.200990  -4.064550  -0.118095  -0.008262  -6.677570  -0.235681  14.317600  -8.040270  -4.252690   0.018979 -62.107000  19.358200 -40.302800  10.520500 -13.068400 -70.903200  39.455700  -9.276570  27.069400  85.746800  48.184100 -111.407000   5.287210  -0.001784   0.000225   7.643630  -0.002522   0.007702 -51.524500   2.724210  -2.162670 -42.198400  -0.000284  -0.000387 -31.648800   0.001780  -0.000221 -56.895100  -3.026690   1.972330 -56.947200  -0.001825  -0.005247 -42.710400   0.007454  -0.002481 -44.490400  -5.834920   5.908940 -54.451400   0.000621   0.001019 -38.611700  -0.000167  -0.004776 -52.209800  -6.573800   5.073240 -78.751800  -0.001194  -0.003619 -52.448700   0.001256   0.000762   9.528780  -1.044480  12.088400  56.619200  16.397800  45.492500 -13.941000 -16.536800  65.790700 -72.166500   5.297280   7.216380 -37.510300  34.797900  78.395900  29.141900  -0.001516   0.000231   9.570980   0.000856   0.000246  46.551500  -2.684610  -2.543880  38.136200  -0.002302  -0.008772  28.045700   0.001183   0.001918  38.093600  -3.561510  -4.526680  54.218500   0.000945  -0.003467  36.723500  -0.004494   0.002184  53.747200  -6.303450  -4.602480  54.019900   0.002424  -0.000324  40.510900  -0.004535  -0.002394  65.130400  -9.088950  -4.187990  98.195100   0.000544   0.001442  65.397900  -0.002578  -0.001422  -0.656805  11.667400   1.751960   0.464905   1.323160  10.898400  -4.326950  -2.727650   5.105460  -0.000000   0.000000  -0.000000   3.001230   9.119030 -10.146700  -2.112990   8.429560  -8.738520  -9.924330  -1.547950   0.420174   0.000000   0.000000  -0.000000
  0.846843  89.934800  -0.984890  -1.118320 -12.572800  -0.727555  -0.022986   7.287710   1.073540  -0.187192  14.573700   2.177200  -4.035100  -0.107414  -0.007738  -6.629150  -0.214352  14.215600  -8.022070  -4.237860   0.023520 -61.996200  19.352200 -40.367300  10.606200 -13.082500 -70.914200  39.458200  -9.136570  26.937700  85.554900  48.234800 -111.402000   5.082800  -0.002085   0.000235   7.541420  -0.002524   0.008302 -51.444000   2.617830  -2.080760 -42.129400  -0.000430  -0.000193 -31.597100   0.001784  -0.000105 -56.870800  -3.029340   1.975570 -56.923000  -0.001917  -0.005152 -42.692200   0.007386  -0.002671 -44.399500  -5.864310   5.957590 -54.451700   0.000647   0.001084 -38.589900  -0.000132  -0.004858 -52.157600  -6.612780   5.113980 -78.679900  -0.001161  -0.003251 -52.400800   0.001538   0.000761   9.514270  -1.014870  12.069200  56.550500  16.339900  45.473600 -13.939800 -16.612500  65.900400 -71.948000   5.319940   7.131350 -37.729900  35.214300  78.773500  28.837200  -0.001696   0.000075   9.418610   0.000866   0.000341  46.569200  -2.683770  -2.540070  38.150700  -0.002467  -0.008567  28.059700   0.001190   0.002091  38.114400  -3.562420  -4.523240  54.216800   0.001108  -0.003566  36.730200  -0.004281   0.002364  53.739800  -6.303600  -4.603100  54.033300   0.002478  -0.000495  40.515600  -0.004136  -0.002347  65.176800  -9.092290  -4.180660  98.264000   0.000450   0.001376  65.443900  -0.002335  -0.001285  -0.635476  11.664500   1.751620   0.462901   1.213110  10.870600  -4.335840  -2.674090   5.044360  -0.000000   0.000000  -0.000000   3.007390   9.105080 -10.132200  -2.099770   8.378460  -8.798000  -9.915920  -1.521540   0.380440  -0.000000   0.000000   0.000000
  0.861129  89.932200  -0.984594  -1.115670 -12.531700  -0.649904  -0.033402   7.270140   1.066520  -0.207045  14.538400   2.163840  -4.010070  -0.100407  -0.007214  -6.588040  -0.200396  14.129900  -8.012470  -4.225270   0.035338 -61.900900  19.339300 -40.421600  10.672500 -13.082800 -70.925300  39.455200  -9.067110  26.876300  85.352600  48.288100 -111.397000   4.968300  -0.002400   0.000259   7.484160  -0.002528   0.008892 -51.371000   2.473730  -1.975170 -42.065600  -0.000574  -0.000000 -31.549200   0.001789   0.000000 -56.839900  -3.032950   1.979980 -56.892300  -0.002011  -0.005058 -42.669200   0.007319  -0.002863 -44.325000  -5.893750   6.001550 -54.451900   0.000671   0.001147 -38.572000  -0.000098  -0.004943 -52.114700  -6.650770   5.149180 -78.621200  -0.001128  -0.002883 -52.361700   0.001824   0.000753   9.504830  -0.981275  12.055400  56.548700  16.275600  45.443400 -13.901400 -16.692500  66.044400 -71.788900   5.350470   7.070420 -38.040600  35.775200  79.307800  28.424200  -0.001876  -0.000084   9.212120   0.000873   0.000423  46.586100  -2.683090  -2.536420  38.164500  -0.002644  -0.008363  28.073100   0.001191   0.002257  38.141000  -3.563340  -4.518910  54.215200   0.001261  -0.003669  36.738900  -0.004070   0.002534  53.721600  -6.303650  -4.605480  54.039700   0.002532  -0.000664  40.516300  -0.003726  -0.002294  65.203600  -9.094210  -4.176440  98.303800   0.000353   0.001314  65.470400  -0.002091  -0.001127  -0.623372  11.646100   1.751200   0.462046   1.153450  10.843100  -4.341940  -2.632230   4.996140  -0.000000   0.000000   0.000000   3.008650   9.085630 -10.113500  -2.087520   8.355790  -8.847150  -9.907350  -1.502580   0.337945   0.000000   0.000000  -0.000000
